<svg id="Layer_1" data-name="Layer 1"
    xmlns="http://www.w3.org/2000/svg" viewBox="0 0 1518.74 943.32">
    <defs>
        <style>.cls-1{fill:#e5e5e5;}.cls-2{fill:#cecdcc;}.cls-3{fill:#ffc23a;}.cls-4{fill:#f9a431;}.cls-5{fill:#cd4b3c;}.cls-6{fill:#ea5645;}.cls-7{fill:#b4b4b4;}.cls-8{fill:#e7e5e5;}.cls-9{fill:#d8d6d6;}</style>
    </defs>
    <path class="cls-1" d="M541.27,825.18s41.67,70.33-12.54,117.93l578.57,47.28,13.19-126.14Z" transform="translate(-200.63 -68.34)"/>
    <path class="cls-2" d="M1114.07,942.69c-7.19-6.79-91.21-86.1-563.1-95.48,0,0-.39-11.44-10.42-22.46l572.57,32.84Z" transform="translate(-200.63 -68.34)"/>
    <polygon class="cls-3" points="910.11 770.63 1278.97 375.6 1289.45 500.79 913.44 933.84 910.11 770.63"/>
    <polygon class="cls-4" points="331.81 721.97 910.11 770.63 1278.97 375.6 761.34 310.4 331.81 721.97"/>
    <path class="cls-3" d="M1108.58,914.76c.43-4.92.86-10.45,1.36-16.44,2.38-29.21-19.07-28.6-19.07-28.6L529.71,823.87l2.73-33.56,567,46.32c11.9,1,19.86,5.49,25.14,11.52h0l0,0c.45.52.89,1.07,1.31,1.6a.7.7,0,0,1,.13.19c.24.29.49.6.7.91,9.75,13,46.77,71.1-7.33,144.6-6.09,9.68-16.49,17.44-34.28,16L518.17,965.15l2.75-33.55,561.16,45.85s21.05,4.1,23.44-25.1c.48-6,1-11.52,1.36-16.45C1106.88,935.9,1107.56,927.46,1108.58,914.76Z" transform="translate(-200.63 -68.34)"/>
    <path class="cls-5" d="M1205.75,445.34l-171.24,374.1-88.88-18.38,41.91-79.29L884,700.4l-77.54,71.94-86.75-17.91,384.52-330ZM946.09,642.82l74.42,15.36L1106,495.05,946.09,642.82Z" transform="translate(-200.63 -68.34)"/>
    <path class="cls-6" d="M265.36,858.48s613-242.67,638.86-244.83c0,0,62.88,15.72,116.77-30,0,0,687.59-66.34,698.38-62L1239.6,90.43,720.76,198.07,200.63,340.51Z" transform="translate(-200.63 -68.34)"/>
    <path class="cls-7" d="M263.66,323.25l-37.14,28L287,813.15l598-229.77s11.34-39.82,48-45.23c0,0,59.7-5.56,74.8,30,0,0,14.8-32.37,132.58-31.28,0,0,299.06,13,524.6-36.69l-96.34-96.78Z" transform="translate(-200.63 -68.34)"/>
    <path class="cls-8" d="M712.11,183,933,538.15S897.72,299.5,1236.57,400.94c0,0,136.91,39.54,332,2.5L1191.24,68.58s-23.75,10.79-293.52,0C897.72,68.58,735.86,57.78,712.11,183Z" transform="translate(-200.63 -68.34)"/>
    <path class="cls-8" d="M933,538.15,712.11,183S552.42,96.63,397,256.34c0,0-99,57.48-133.36,66.91l68.61,416.53S548.1,627.55,610.68,571.44C610.68,571.44,831.53,313.7,933,538.15Z" transform="translate(-200.63 -68.34)"/>
    <path class="cls-9" d="M712.11,183,933,538.15s-2.38-165,147.24-162.1L835.93,73.44S716.49,91.35,712.11,183Z" transform="translate(-200.63 -68.34)"/>
    <path class="cls-9" d="M933,538.15s-7.47-173.72,154.37-162.29c0,0,51.08-9.12,183.93,32.58,0,0,187.86,21.27,297.34-5l46.07,46.28s-87.06,42.48-439.61,6.87c0,0-152.58-37-186.88,91.11C988.2,547.7,952.64,531,933,538.15Z" transform="translate(-200.63 -68.34)"/>
    <path class="cls-9" d="M933,538.15S886.44,421,786.88,446.09c0,0-84.9,21.82-188.55,135.61,0,0-189.07,138.15-319.85,166.81l5.65,43.1S489.61,733.38,665.61,602c0,0,153.74-140.83,230.55-40.52C896.16,561.5,916,539.7,933,538.15Z" transform="translate(-200.63 -68.34)"/>
    <polygon class="cls-9" points="25.9 282.95 77.86 680.16 130.46 664.28 63.04 254.91 25.9 282.95"/>
    <path class="cls-4" d="M1119.37,995.39c54.09-74,17.07-132.48,7.32-145.52a10.15,10.15,0,0,0-.7-.92.41.41,0,0,0-.12-.18c-.42-.53-.86-1.1-1.32-1.62l0,0c-5.28-6.07-13.23-10.61-25.13-11.59L984.87,826.1l-2.56,33.79,108.53,8.93s21.45-.62,19.07,28.78c-.5,6-.93,11.59-1.35,16.54-1,12.78-1.71,21.27-1.71,21.27-.41,5-.88,10.52-1.36,16.56-2.38,29.39-23.43,25.26-23.43,25.26l-108-8.88-2.55,33.79,113.56,9.34C1102.89,1012.93,1113.27,1005.12,1119.37,995.39Z" transform="translate(-200.63 -68.34)"/>
</svg>